.
 
http://www.scenetime.com    -  Hottest private tracker on the net. !!!

New release on http://www.scenetime.com

        Seed back for speed


...................................NFO:.................................................








































          
          
              
              
                    
                    
                    
                    
Takers.2010.DVDRiP.XviD.AC3-SiC

Poster:
[img]http://img838.imageshack.us/img838/5056/takerst.png[/img]

IMDB Link: 
http://www.imdb.com/title/tt1135084

Description:
A seasoned team of bank robbers, including Gordon Jennings (Idris Elba), John Rahway (Paul Walker), A.J. (Hayden Christensen), and brothers Jake (Michael Ealy) and Jesse Attica (Chris Brown) successfully complete their latest heist and lead a life of luxury while planning their next job. When Ghost (Tip T.I. Harris), a former member of their team, is released from prison he convinces the group to strike an armored car carrying $20 million. As the "Takers" carefully plot out their strategy and draw nearer to exacting the grand heist, a reckless police officer (Matt Dillon) inches closer to apprehending the criminals.

Action | Crime | Drama | Thriller

General:
Complete name                    : Takers.2010.DVDRiP.XviD.AC3-SiC.avi
Format                           : AVI
Format/Info                      : Audio Video Interleave
File size                        : 1.38 GiB
Duration                         : 1h 47mn
Overall bit rate                 : 1 848 Kbps

Video
ID                               : 0
Format                           : MPEG-4 Visual
Format profile                   : Advanced Simple@L5
Format settings, BVOP            : 3
Format settings, QPel            : No
Format settings, GMC             : No warppoints
Format settings, Matrix          : Default (H.263)
Codec ID                         : XVID
Codec ID/Hint                    : XviD
Duration                         : 1h 47mn
Bit rate                         : 1 456 Kbps
Width                            : 720 pixels
Height                           : 400 pixels
Display aspect ratio             : 16:9
Frame rate                       : 23.976 fps
Color space                      : YUV
Chroma subsampling               : 4:2:0
Bit depth                        : 8 bits
Scan type                        : Progressive
Compression mode                 : Lossy
Bits/(Pixel*Frame)               : 0.211
Stream size                      : 1.09 GiB (79%)
Writing library                  : XviD 1.2.1 (UTC 2008-12-04)

Audio
ID                               : 1
Format                           : AC-3
Format/Info                      : Audio Coding 3
Mode extension                   : CM (complete main)
Codec ID                         : 2000
Duration                         : 1h 47mn
Bit rate mode                    : Constant
Bit rate                         : 384 Kbps
Channel(s)                       : 6 channels
Channel positions                : Front: L C R, Side: L R, LFE
Sampling rate                    : 48.0 KHz
Bit depth                        : 16 bits
Compression mode                 : Lossy
Stream size                      : 294 MiB (21%)
Alignment                        : Aligned on interleaves
Interleave, duration             : 64 ms (1.53 video frames)
Interleave, preload duration     : 192 ms
Title                            : Takers.2010.DVDRiP.XviD.AC3-SiC

Screenshots:
[IMG]http://img6.imageshack.us/img6/1545/vlcsnap2012012101h28m59.png[/IMG]
[IMG]http://img706.imageshack.us/img706/130/vlcsnap2012012101h29m47.png[/IMG]
[IMG]http://img85.imageshack.us/img85/9038/vlcsnap2012012101h29m56.png[/IMG]
[IMG]http://img15.imageshack.us/img15/7101/vlcsnap2012012101h31m08.png[/IMG]
[IMG]http://img853.imageshack.us/img853/3980/vlcsnap2012012101h31m16.png[/IMG]
[IMG]http://img341.imageshack.us/img341/6411/vlcsnap2012012101h31m41.png[/IMG]

Note:  Normal stuff applied, few others filters as well :D  Came together nice ;)  Audio converted to 384kbps 5.1 AC3 then muxed to our encode.

Source:  Ours

Enjoy!

Respects to T00NG0D, ELEKTRI4KA, PA, YeFsTe, MrRep and everyone in the struggle...